ffmpeg started on 2025-06-23 at 19:51:40
Report written to "D:\Convert\FFMetrics\reports\ssim_report-6.txt"
Log level: 32
Command line:
ffmpeg -hide_banner -nostdin -i "G:\\\xc0\xed\xe8\xec\xe5\\[\xd2\xee\xef-4]\\\xcc\xee\xe6\xe5\xf2, \xff \xe2\xf1\xf2\xf0\xe5\xf7\xf3 \xf2\xe5\xe1\xff \xe2 \xef\xee\xe4\xe7\xe5\xec\xe5\xeb\xfc\xe5\\\xd2\xc2-1\\DanMachi_[04]_[AniLibria_TV]_[HDTVRip_720p]_HEVC.mkv" -i "G:\\\xc0\xed\xe8\xec\xe5\\[\xd2\xee\xef-4]\\\xcc\xee\xe6\xe5\xf2, \xff \xe2\xf1\xf2\xf0\xe5\xf7\xf3 \xf2\xe5\xe1\xff \xe2 \xef\xee\xe4\xe7\xe5\xec\xe5\xeb\xfc\xe5\\\xd2\xc2-1\\DanMachi_[04]_[AniLibria_TV]_[HDTVRip_720p].mkv" -lavfi "[0:v]settb=AVTB,setpts=PTS-STARTPTS,format=pix_fmts=yuv420p10,fps=24000/1001,scale=1280:720:flags=bicubic[main];[1:v]settb=AVTB,setpts=PTS-STARTPTS,format=pix_fmts=yuv420p,fps=24000/1001,scale=1280:720:flags=bicubic[ref];[main][ref]ssim=eof_action=endall:stats_file='D\\:/Convert/FFMetrics/logs/ssim_logfile-6.txt'" -f null -
Input #0, matroska,webm, from 'G:\Аниме\[Топ-4]\Может, я встречу тебя в подземелье\ТВ-1\DanMachi_[04]_[AniLibria_TV]_[HDTVRip_720p]_HEVC.mkv':
  Metadata:
    ENCODER         : Lavf61.7.100
  Duration: 00:23:41.61, start: -0.021000, bitrate: 712 kb/s
  Stream #0:0(jpn): Video: hevc (Main 10), yuv420p10le(tv, bt709, progressive), 1280x720 [SAR 1:1 DAR 16:9], 23.98 fps, 23.98 tbr, 1k tbn (default)
      Metadata:
        title           : Original [HorribleSubs]
        ENCODER         : Lavc61.19.100 libx265
        BPS             : 513956
        DURATION        : 00:23:41.546708375
        NUMBER_OF_FRAMES: 34083
        NUMBER_OF_BYTES : 91326537
        _STATISTICS_WRITING_APP: mkvpropedit v66.0.0 ('Josie') 64-bit
        _STATISTICS_WRITING_DATE_UTC: 2025-06-23 07:52:16
        _STATISTICS_TAGS: BPS DURATION NUMBER_OF_FRAMES NUMBER_OF_BYTES
  Stream #0:1(rus): Audio: aac (LC), 48000 Hz, stereo, fltp (default)
      Metadata:
        title           : Metacarmex & Say
        ENCODER         : Lavc61.19.100 aac
        BPS             : 193887
        DURATION        : 00:23:41.589000000
        NUMBER_OF_FRAMES: 66638
        NUMBER_OF_BYTES : 34453585
        _STATISTICS_WRITING_APP: mkvpropedit v66.0.0 ('Josie') 64-bit
        _STATISTICS_WRITING_DATE_UTC: 2025-06-23 07:52:16
        _STATISTICS_TAGS: BPS DURATION NUMBER_OF_FRAMES NUMBER_OF_BYTES
  Stream #0:2(rus): Subtitle: ass (ssa) (default)
      Metadata:
        title           : Надписи
        BPS             : 5
        DURATION        : 00:22:27.850000000
        NUMBER_OF_FRAMES: 6
        NUMBER_OF_BYTES : 873
        _STATISTICS_WRITING_APP: mkvpropedit v66.0.0 ('Josie') 64-bit
        _STATISTICS_WRITING_DATE_UTC: 2025-06-23 07:52:16
        _STATISTICS_TAGS: BPS DURATION NUMBER_OF_FRAMES NUMBER_OF_BYTES
  Stream #0:3(rus): Subtitle: ass (ssa)
      Metadata:
        title           : Полные
        BPS             : 141
        DURATION        : 00:23:36.270000000
        NUMBER_OF_FRAMES: 360
        NUMBER_OF_BYTES : 24975
        _STATISTICS_WRITING_APP: mkvpropedit v66.0.0 ('Josie') 64-bit
        _STATISTICS_WRITING_DATE_UTC: 2025-06-23 07:52:16
        _STATISTICS_TAGS: BPS DURATION NUMBER_OF_FRAMES NUMBER_OF_BYTES
Input #1, matroska,webm, from 'G:\Аниме\[Топ-4]\Может, я встречу тебя в подземелье\ТВ-1\DanMachi_[04]_[AniLibria_TV]_[HDTVRip_720p].mkv':
  Metadata:
    encoder         : libebml v1.4.2 + libmatroska v1.6.4
    creation_time   : 2025-01-14T16:49:09.000000Z
  Duration: 00:23:41.59, start: 0.000000, bitrate: 1970 kb/s
  Stream #1:0(jpn): Video: h264 (High), yuv420p(progressive), 1280x720, SAR 1:1 DAR 16:9, 23.98 fps, 23.98 tbr, 1k tbn (default)
      Metadata:
        title           : Original [HorribleSubs]
        BPS             : 1773139
        DURATION        : 00:23:41.547000000
        NUMBER_OF_FRAMES: 34083
        NUMBER_OF_BYTES : 315075106
        _STATISTICS_WRITING_APP: mkvmerge v66.0.0 ('Josie') 64-bit
        _STATISTICS_WRITING_DATE_UTC: 2025-01-14 16:49:09
        _STATISTICS_TAGS: BPS DURATION NUMBER_OF_FRAMES NUMBER_OF_BYTES
  Stream #1:1(rus): Audio: aac (LC), 48000 Hz, stereo, fltp (default)
      Metadata:
        title           : Metacarmex & Say
        BPS             : 192090
        DURATION        : 00:23:41.589000000
        NUMBER_OF_FRAMES: 66637
        NUMBER_OF_BYTES : 34134292
        _STATISTICS_WRITING_APP: mkvmerge v66.0.0 ('Josie') 64-bit
        _STATISTICS_WRITING_DATE_UTC: 2025-01-14 16:49:09
        _STATISTICS_TAGS: BPS DURATION NUMBER_OF_FRAMES NUMBER_OF_BYTES
  Stream #1:2(rus): Subtitle: ass (ssa) (default)
      Metadata:
        title           : Надписи
        BPS             : 5
        DURATION        : 00:22:27.850000000
        NUMBER_OF_FRAMES: 6
        NUMBER_OF_BYTES : 873
        _STATISTICS_WRITING_APP: mkvmerge v66.0.0 ('Josie') 64-bit
        _STATISTICS_WRITING_DATE_UTC: 2025-01-14 16:49:09
        _STATISTICS_TAGS: BPS DURATION NUMBER_OF_FRAMES NUMBER_OF_BYTES
  Stream #1:3(rus): Subtitle: ass (ssa)
      Metadata:
        title           : Полные
        BPS             : 141
        DURATION        : 00:23:36.270000000
        NUMBER_OF_FRAMES: 360
        NUMBER_OF_BYTES : 24975
        _STATISTICS_WRITING_APP: mkvmerge v66.0.0 ('Josie') 64-bit
        _STATISTICS_WRITING_DATE_UTC: 2025-01-14 16:49:09
        _STATISTICS_TAGS: BPS DURATION NUMBER_OF_FRAMES NUMBER_OF_BYTES
  Stream #1:4: Attachment: ttf
      Metadata:
        filename        : ChinaCyr.ttf
        mimetype        : application/x-truetype-font
  Stream #1:5: Attachment: ttf
      Metadata:
        filename        : TkhO4vNj.ttf
        mimetype        : application/x-truetype-font
  Stream #1:6: Attachment: ttf
      Metadata:
        filename        : bonzai.ttf
        mimetype        : application/x-truetype-font
  Stream #1:7: Attachment: ttf
      Metadata:
        filename        : OpenSans-Semibold.ttf
        mimetype        : application/x-truetype-font
Stream mapping:
  Stream #0:0 (hevc) -> settb:default
  Stream #1:0 (h264) -> settb:default
  ssim:default -> Stream #0:0 (wrapped_avframe)
  Stream #0:1 -> #0:1 (aac (native) -> pcm_s16le (native))
[swscaler @ 0000023c5f16de00] No accelerated colorspace conversion found from yuv420p to bgr48le.
[swscaler @ 0000023c5f2914c0] No accelerated colorspace conversion found from yuv420p to bgr48le.
[swscaler @ 0000023c5f307c80] No accelerated colorspace conversion found from yuv420p to bgr48le.
[swscaler @ 0000023c5f36ac80] No accelerated colorspace conversion found from yuv420p to bgr48le.
[swscaler @ 0000023c5f42f640] No accelerated colorspace conversion found from yuv420p to bgr48le.
[swscaler @ 0000023c5f595980] No accelerated colorspace conversion found from yuv420p to bgr48le.
[swscaler @ 0000023c5f6b17c0] No accelerated colorspace conversion found from yuv420p to bgr48le.
[swscaler @ 0000023c5f838a80] No accelerated colorspace conversion found from yuv420p to bgr48le.
[swscaler @ 0000023c5f8cf280] No accelerated colorspace conversion found from yuv420p to bgr48le.
[swscaler @ 0000023c5fa1b7c0] No accelerated colorspace conversion found from yuv420p to bgr48le.
[swscaler @ 0000023c5d1f0d80] No accelerated colorspace conversion found from yuv420p to bgr48le.
[swscaler @ 0000023c5d20ad40] No accelerated colorspace conversion found from yuv420p to bgr48le.
[swscaler @ 0000023c5fc962c0] No accelerated colorspace conversion found from yuv420p to bgr48le.
[swscaler @ 0000023c63e01040] No accelerated colorspace conversion found from yuv420p to bgr48le.
[swscaler @ 0000023c63e5e040] No accelerated colorspace conversion found from yuv420p to bgr48le.
[swscaler @ 0000023c63ed7040] No accelerated colorspace conversion found from yuv420p to bgr48le.
Output #0, null, to 'pipe:':
  Metadata:
    encoder         : Lavf61.7.100
  Stream #0:0: Video: wrapped_avframe, yuv420p10le(tv, bt709, progressive), 1280x720 [SAR 1:1 DAR 16:9], q=2-31, 200 kb/s, 23.98 fps, 23.98 tbn
      Metadata:
        encoder         : Lavc61.19.100 wrapped_avframe
  Stream #0:1(rus): Audio: pcm_s16le, 48000 Hz, stereo, s16, 1536 kb/s (default)
      Metadata:
        title           : Metacarmex & Say
        _STATISTICS_TAGS: BPS DURATION NUMBER_OF_FRAMES NUMBER_OF_BYTES
        BPS             : 193887
        DURATION        : 00:23:41.589000000
        NUMBER_OF_FRAMES: 66638
        NUMBER_OF_BYTES : 34453585
        _STATISTICS_WRITING_APP: mkvpropedit v66.0.0 ('Josie') 64-bit
        _STATISTICS_WRITING_DATE_UTC: 2025-06-23 07:52:16
        encoder         : Lavc61.19.100 pcm_s16le
frame=   81 fps=0.0 q=-0.0 size=N/A time=00:00:03.37 bitrate=N/A speed=6.49x    frame=  183 fps=177 q=-0.0 size=N/A time=00:00:07.63 bitrate=N/A speed= 7.4x    frame=  293 fps=188 q=-0.0 size=N/A time=00:00:12.22 bitrate=N/A speed=7.85x    frame=  390 fps=189 q=-0.0 size=N/A time=00:00:16.26 bitrate=N/A speed=7.86x    frame=  489 fps=190 q=-0.0 size=N/A time=00:00:20.39 bitrate=N/A speed=7.91x    frame=  587 fps=189 q=-0.0 size=N/A time=00:00:24.48 bitrate=N/A speed= 7.9x    frame=  684 fps=190 q=-0.0 size=N/A time=00:00:28.52 bitrate=N/A speed=7.91x    frame=  783 fps=189 q=-0.0 size=N/A time=00:00:32.65 bitrate=N/A speed= 7.9x    frame=  881 fps=190 q=-0.0 size=N/A time=00:00:36.74 bitrate=N/A speed=7.91x    frame=  972 fps=189 q=-0.0 size=N/A time=00:00:40.54 bitrate=N/A speed=7.87x    frame= 1076 fps=189 q=-0.0 size=N/A time=00:00:44.87 bitrate=N/A speed= 7.9x    frame= 1171 fps=189 q=-0.0 size=N/A time=00:00:48.84 bitrate=N/A speed=7.89x    frame= 1262 fps=188 q=-0.0 size=N/A time=00:00:52.63 bitrate=N/A speed=7.86x    frame= 1365 fps=189 q=-0.0 size=N/A time=00:00:56.93 bitrate=N/A speed=7.88x    frame= 1457 fps=188 q=-0.0 size=N/A time=00:01:00.76 bitrate=N/A speed=7.86x    frame= 1550 fps=188 q=-0.0 size=N/A time=00:01:04.64 bitrate=N/A speed=7.83x    frame= 1645 fps=187 q=-0.0 size=N/A time=00:01:08.61 bitrate=N/A speed=7.82x    frame= 1727 fps=186 q=-0.0 size=N/A time=00:01:12.03 bitrate=N/A speed=7.76x    frame= 1834 fps=187 q=-0.0 size=N/A time=00:01:16.49 bitrate=N/A speed=7.81x    frame= 1922 fps=186 q=-0.0 size=N/A time=00:01:20.16 bitrate=N/A speed=7.77x    frame= 2024 fps=187 q=-0.0 size=N/A time=00:01:24.41 bitrate=N/A speed= 7.8x    frame= 2119 fps=187 q=-0.0 size=N/A time=00:01:28.37 bitrate=N/A speed=7.79x    frame= 2210 fps=186 q=-0.0 size=N/A time=00:01:32.17 bitrate=N/A speed=7.77x    frame= 2297 fps=186 q=-0.0 size=N/A time=00:01:35.80 bitrate=N/A speed=7.74x    frame= 2389 fps=185 q=-0.0 size=N/A time=00:01:39.64 bitrate=N/A speed=7.73x    frame= 2488 fps=185 q=-0.0 size=N/A time=00:01:43.77 bitrate=N/A speed=7.73x    frame= 2584 fps=185 q=-0.0 size=N/A time=00:01:47.77 bitrate=N/A speed=7.73x    frame= 2680 fps=185 q=-0.0 size=N/A time=00:01:51.77 bitrate=N/A speed=7.73x    frame= 2776 fps=185 q=-0.0 size=N/A time=00:01:55.78 bitrate=N/A speed=7.73x    frame= 2860 fps=185 q=-0.0 size=N/A time=00:01:59.28 bitrate=N/A speed= 7.7x    frame= 2952 fps=185 q=-0.0 size=N/A time=00:02:03.12 bitrate=N/A speed= 7.7x    frame= 3053 fps=185 q=-0.0 size=N/A time=00:02:07.33 bitrate=N/A speed=7.71x    frame= 3145 fps=185 q=-0.0 size=N/A time=00:02:11.17 bitrate=N/A speed= 7.7x    frame= 3234 fps=184 q=-0.0 size=N/A time=00:02:14.88 bitrate=N/A speed=7.69x    frame= 3320 fps=184 q=-0.0 size=N/A time=00:02:18.47 bitrate=N/A speed=7.67x    frame= 3408 fps=183 q=-0.0 size=N/A time=00:02:22.14 bitrate=N/A speed=7.65x    frame= 3505 fps=183 q=-0.0 size=N/A time=00:02:26.18 bitrate=N/A speed=7.65x    frame= 3589 fps=183 q=-0.0 size=N/A time=00:02:29.69 bitrate=N/A speed=7.63x    frame= 3686 fps=183 q=-0.0 size=N/A time=00:02:33.73 bitrate=N/A speed=7.64x    frame= 3777 fps=183 q=-0.0 size=N/A time=00:02:37.53 bitrate=N/A speed=7.63x    frame= 3876 fps=183 q=-0.0 size=N/A time=00:02:41.66 bitrate=N/A speed=7.64x    frame= 3967 fps=183 q=-0.0 size=N/A time=00:02:45.45 bitrate=N/A speed=7.63x    frame= 4069 fps=183 q=-0.0 size=N/A time=00:02:49.71 bitrate=N/A speed=7.65x    frame= 4164 fps=183 q=-0.0 size=N/A time=00:02:53.67 bitrate=N/A speed=7.65x    frame= 4256 fps=183 q=-0.0 size=N/A time=00:02:57.51 bitrate=N/A speed=7.64x    frame= 4353 fps=183 q=-0.0 size=N/A time=00:03:01.55 bitrate=N/A speed=7.65x    frame= 4448 fps=183 q=-0.0 size=N/A time=00:03:05.51 bitrate=N/A speed=7.65x    frame= 4547 fps=184 q=-0.0 size=N/A time=00:03:09.64 bitrate=N/A speed=7.65x    frame= 4643 fps=184 q=-0.0 size=N/A time=00:03:13.65 bitrate=N/A speed=7.66x    frame= 4736 fps=184 q=-0.0 size=N/A time=00:03:17.53 bitrate=N/A speed=7.66x    frame= 4825 fps=183 q=-0.0 size=N/A time=00:03:21.24 bitrate=N/A speed=7.65x    frame= 4922 fps=183 q=-0.0 size=N/A time=00:03:25.28 bitrate=N/A speed=7.65x    frame= 5014 fps=183 q=-0.0 size=N/A time=00:03:29.12 bitrate=N/A speed=7.65x    frame= 5104 fps=183 q=-0.0 size=N/A time=00:03:32.87 bitrate=N/A speed=7.64x    frame= 5195 fps=183 q=-0.0 size=N/A time=00:03:36.67 bitrate=N/A speed=7.64x    frame= 5290 fps=183 q=-0.0 size=N/A time=00:03:40.63 bitrate=N/A speed=7.64x    frame= 5380 fps=183 q=-0.0 size=N/A time=00:03:44.39 bitrate=N/A speed=7.63x    frame= 5479 fps=183 q=-0.0 size=N/A time=00:03:48.51 bitrate=N/A speed=7.64x    frame= 5572 fps=183 q=-0.0 size=N/A time=00:03:52.39 bitrate=N/A speed=7.64x    frame= 5672 fps=183 q=-0.0 size=N/A time=00:03:56.56 bitrate=N/A speed=7.64x    frame= 5773 fps=183 q=-0.0 size=N/A time=00:04:00.78 bitrate=N/A speed=7.65x    frame= 5871 fps=184 q=-0.0 size=N/A time=00:04:04.86 bitrate=N/A speed=7.66x    frame= 5971 fps=184 q=-0.0 size=N/A time=00:04:09.04 bitrate=N/A speed=7.66x    frame= 6067 fps=184 q=-0.0 size=N/A time=00:04:13.04 bitrate=N/A speed=7.66x    frame= 6166 fps=184 q=-0.0 size=N/A time=00:04:17.17 bitrate=N/A speed=7.67x    frame= 6258 fps=184 q=-0.0 size=N/A time=00:04:21.01 bitrate=N/A speed=7.67x    frame= 6364 fps=184 q=-0.0 size=N/A time=00:04:25.43 bitrate=N/A speed=7.68x    frame= 6462 fps=184 q=-0.0 size=N/A time=00:04:29.51 bitrate=N/A speed=7.68x    frame= 6558 fps=184 q=-0.0 size=N/A time=00:04:33.52 bitrate=N/A speed=7.68x    frame= 6655 fps=184 q=-0.0 size=N/A time=00:04:37.56 bitrate=N/A speed=7.69x    frame= 6760 fps=185 q=-0.0 size=N/A time=00:04:41.94 bitrate=N/A speed= 7.7x    frame= 6856 fps=185 q=-0.0 size=N/A time=00:04:45.95 bitrate=N/A speed= 7.7x    frame= 6957 fps=185 q=-0.0 size=N/A time=00:04:50.16 bitrate=N/A speed=7.71x    frame= 7054 fps=185 q=-0.0 size=N/A time=00:04:54.21 bitrate=N/A speed=7.71x    frame= 7159 fps=185 q=-0.0 size=N/A time=00:04:58.58 bitrate=N/A speed=7.72x    frame= 7259 fps=185 q=-0.0 size=N/A time=00:05:02.76 bitrate=N/A speed=7.72x    frame= 7360 fps=185 q=-0.0 size=N/A time=00:05:06.97 bitrate=N/A speed=7.73x    frame= 7461 fps=185 q=-0.0 size=N/A time=00:05:11.18 bitrate=N/A speed=7.73x    frame= 7563 fps=186 q=-0.0 size=N/A time=00:05:15.44 bitrate=N/A speed=7.74x    frame= 7661 fps=186 q=-0.0 size=N/A time=00:05:19.52 bitrate=N/A speed=7.74x    frame= 7759 fps=186 q=-0.0 size=N/A time=00:05:23.61 bitrate=N/A speed=7.75x    frame= 7854 fps=186 q=-0.0 size=N/A time=00:05:27.57 bitrate=N/A speed=7.74x    frame= 7955 fps=186 q=-0.0 size=N/A time=00:05:31.78 bitrate=N/A speed=7.75x    frame= 8049 fps=186 q=-0.0 size=N/A time=00:05:35.71 bitrate=N/A speed=7.75x    frame= 8150 fps=186 q=-0.0 size=N/A time=00:05:39.92 bitrate=N/A speed=7.75x    frame= 8248 fps=186 q=-0.0 size=N/A time=00:05:44.01 bitrate=N/A speed=7.75x    frame= 8354 fps=186 q=-0.0 size=N/A time=00:05:48.43 bitrate=N/A speed=7.76x    frame= 8453 fps=186 q=-0.0 size=N/A time=00:05:52.56 bitrate=N/A speed=7.77x    frame= 8553 fps=186 q=-0.0 size=N/A time=00:05:56.73 bitrate=N/A speed=7.77x    frame= 8651 fps=186 q=-0.0 size=N/A time=00:06:00.81 bitrate=N/A speed=7.77x    frame= 8746 fps=186 q=-0.0 size=N/A time=00:06:04.78 bitrate=N/A speed=7.77x    frame= 8847 fps=186 q=-0.0 size=N/A time=00:06:08.99 bitrate=N/A speed=7.78x    frame= 8949 fps=187 q=-0.0 size=N/A time=00:06:13.24 bitrate=N/A speed=7.78x    frame= 9044 fps=187 q=-0.0 size=N/A time=00:06:17.21 bitrate=N/A speed=7.78x    frame= 9146 fps=187 q=-0.0 size=N/A time=00:06:21.46 bitrate=N/A speed=7.78x    frame= 9242 fps=187 q=-0.0 size=N/A time=00:06:25.46 bitrate=N/A speed=7.79x    frame= 9346 fps=187 q=-0.0 size=N/A time=00:06:29.80 bitrate=N/A speed=7.79x    frame= 9441 fps=187 q=-0.0 size=N/A time=00:06:33.76 bitrate=N/A speed=7.79x    frame= 9542 fps=187 q=-0.0 size=N/A time=00:06:37.98 bitrate=N/A speed=7.79x    frame= 9637 fps=187 q=-0.0 size=N/A time=00:06:41.94 bitrate=N/A speed=7.79x    frame= 9745 fps=187 q=-0.0 size=N/A time=00:06:46.44 bitrate=N/A speed= 7.8x    frame= 9845 fps=187 q=-0.0 size=N/A time=00:06:50.61 bitrate=N/A speed= 7.8x    frame= 9945 fps=187 q=-0.0 size=N/A time=00:06:54.78 bitrate=N/A speed=7.81x    frame=10044 fps=187 q=-0.0 size=N/A time=00:06:58.91 bitrate=N/A speed=7.81x    frame=10146 fps=187 q=-0.0 size=N/A time=00:07:03.17 bitrate=N/A speed=7.81x    frame=10245 fps=187 q=-0.0 size=N/A time=00:07:07.30 bitrate=N/A speed=7.82x    frame=10346 fps=187 q=-0.0 size=N/A time=00:07:11.51 bitrate=N/A speed=7.82x    frame=10450 fps=188 q=-0.0 size=N/A time=00:07:15.85 bitrate=N/A speed=7.82x    frame=10546 fps=188 q=-0.0 size=N/A time=00:07:19.85 bitrate=N/A speed=7.82x    frame=10649 fps=188 q=-0.0 size=N/A time=00:07:24.15 bitrate=N/A speed=7.83x    frame=10749 fps=188 q=-0.0 size=N/A time=00:07:28.32 bitrate=N/A speed=7.83x    frame=10850 fps=188 q=-0.0 size=N/A time=00:07:32.53 bitrate=N/A speed=7.83x    frame=10951 fps=188 q=-0.0 size=N/A time=00:07:36.74 bitrate=N/A speed=7.84x    frame=11051 fps=188 q=-0.0 size=N/A time=00:07:40.91 bitrate=N/A speed=7.84x    frame=11151 fps=188 q=-0.0 size=N/A time=00:07:45.08 bitrate=N/A speed=7.84x    frame=11250 fps=188 q=-0.0 size=N/A time=00:07:49.21 bitrate=N/A speed=7.84x    frame=11345 fps=188 q=-0.0 size=N/A time=00:07:53.18 bitrate=N/A speed=7.84x    frame=11447 fps=188 q=-0.0 size=N/A time=00:07:57.43 bitrate=N/A speed=7.85x    frame=11545 fps=188 q=-0.0 size=N/A time=00:08:01.52 bitrate=N/A speed=7.85x    frame=11648 fps=188 q=-0.0 size=N/A time=00:08:05.81 bitrate=N/A speed=7.85x    frame=11738 fps=188 q=-0.0 size=N/A time=00:08:09.57 bitrate=N/A speed=7.84x    frame=11849 fps=188 q=-0.0 size=N/A time=00:08:14.20 bitrate=N/A speed=7.85x    frame=11947 fps=188 q=-0.0 size=N/A time=00:08:18.28 bitrate=N/A speed=7.85x    frame=12051 fps=188 q=-0.0 size=N/A time=00:08:22.62 bitrate=N/A speed=7.86x    frame=12136 fps=188 q=-0.0 size=N/A time=00:08:26.17 bitrate=N/A speed=7.85x    frame=12235 fps=188 q=-0.0 size=N/A time=00:08:30.30 bitrate=N/A speed=7.85x    frame=12346 fps=188 q=-0.0 size=N/A time=00:08:34.93 bitrate=N/A speed=7.86x    frame=12452 fps=189 q=-0.0 size=N/A time=00:08:39.35 bitrate=N/A speed=7.87x    frame=12551 fps=189 q=-0.0 size=N/A time=00:08:43.48 bitrate=N/A speed=7.87x    frame=12652 fps=189 q=-0.0 size=N/A time=00:08:47.69 bitrate=N/A speed=7.87x    frame=12742 fps=189 q=-0.0 size=N/A time=00:08:51.44 bitrate=N/A speed=7.87x    frame=12852 fps=189 q=-0.0 size=N/A time=00:08:56.03 bitrate=N/A speed=7.87x    frame=12950 fps=189 q=-0.0 size=N/A time=00:09:00.12 bitrate=N/A speed=7.87x    frame=13048 fps=189 q=-0.0 size=N/A time=00:09:04.21 bitrate=N/A speed=7.88x    frame=13141 fps=189 q=-0.0 size=N/A time=00:09:08.08 bitrate=N/A speed=7.87x    frame=13244 fps=189 q=-0.0 size=N/A time=00:09:12.38 bitrate=N/A speed=7.88x    frame=13336 fps=189 q=-0.0 size=N/A time=00:09:16.22 bitrate=N/A speed=7.87x    frame=13446 fps=189 q=-0.0 size=N/A time=00:09:20.81 bitrate=N/A speed=7.88x    frame=13543 fps=189 q=-0.0 size=N/A time=00:09:24.85 bitrate=N/A speed=7.88x    frame=13642 fps=189 q=-0.0 size=N/A time=00:09:28.98 bitrate=N/A speed=7.88x    frame=13737 fps=189 q=-0.0 size=N/A time=00:09:32.94 bitrate=N/A speed=7.88x    frame=13838 fps=189 q=-0.0 size=N/A time=00:09:37.15 bitrate=N/A speed=7.88x    frame=13929 fps=189 q=-0.0 size=N/A time=00:09:40.95 bitrate=N/A speed=7.88x    frame=14036 fps=189 q=-0.0 size=N/A time=00:09:45.41 bitrate=N/A speed=7.88x    frame=14136 fps=189 q=-0.0 size=N/A time=00:09:49.58 bitrate=N/A speed=7.88x    frame=14236 fps=189 q=-0.0 size=N/A time=00:09:53.75 bitrate=N/A speed=7.88x    frame=14334 fps=189 q=-0.0 size=N/A time=00:09:57.84 bitrate=N/A speed=7.89x    frame=14429 fps=189 q=-0.0 size=N/A time=00:10:01.80 bitrate=N/A speed=7.88x    frame=14532 fps=189 q=-0.0 size=N/A time=00:10:06.10 bitrate=N/A speed=7.89x    frame=14629 fps=189 q=-0.0 size=N/A time=00:10:10.15 bitrate=N/A speed=7.89x    frame=14728 fps=189 q=-0.0 size=N/A time=00:10:14.28 bitrate=N/A speed=7.89x    frame=14827 fps=189 q=-0.0 size=N/A time=00:10:18.40 bitrate=N/A speed=7.89x    frame=14930 fps=189 q=-0.0 size=N/A time=00:10:22.70 bitrate=N/A speed=7.89x    frame=15027 fps=189 q=-0.0 size=N/A time=00:10:26.75 bitrate=N/A speed=7.89x    frame=15127 fps=189 q=-0.0 size=N/A time=00:10:30.92 bitrate=N/A speed=7.89x    frame=15219 fps=189 q=-0.0 size=N/A time=00:10:34.75 bitrate=N/A speed=7.89x    frame=15325 fps=189 q=-0.0 size=N/A time=00:10:39.18 bitrate=N/A speed=7.89x    frame=15418 fps=189 q=-0.0 size=N/A time=00:10:43.05 bitrate=N/A speed=7.89x    frame=15524 fps=189 q=-0.0 size=N/A time=00:10:47.48 bitrate=N/A speed= 7.9x    frame=15622 fps=189 q=-0.0 size=N/A time=00:10:51.56 bitrate=N/A speed= 7.9x    frame=15723 fps=189 q=-0.0 size=N/A time=00:10:55.78 bitrate=N/A speed= 7.9x    frame=15824 fps=189 q=-0.0 size=N/A time=00:10:59.99 bitrate=N/A speed= 7.9x    frame=15922 fps=189 q=-0.0 size=N/A time=00:11:04.08 bitrate=N/A speed= 7.9x    frame=16020 fps=189 q=-0.0 size=N/A time=00:11:08.16 bitrate=N/A speed= 7.9x    frame=16123 fps=189 q=-0.0 size=N/A time=00:11:12.46 bitrate=N/A speed= 7.9x    frame=16223 fps=189 q=-0.0 size=N/A time=00:11:16.63 bitrate=N/A speed= 7.9x    frame=16323 fps=190 q=-0.0 size=N/A time=00:11:20.80 bitrate=N/A speed= 7.9x    frame=16414 fps=189 q=-0.0 size=N/A time=00:11:24.60 bitrate=N/A speed= 7.9x    frame=16523 fps=190 q=-0.0 size=N/A time=00:11:29.18 bitrate=N/A speed=7.91x    frame=16624 fps=190 q=-0.0 size=N/A time=00:11:33.35 bitrate=N/A speed=7.91x    frame=16721 fps=190 q=-0.0 size=N/A time=00:11:37.40 bitrate=N/A speed=7.91x    frame=16818 fps=190 q=-0.0 size=N/A time=00:11:41.45 bitrate=N/A speed=7.91x    frame=16924 fps=190 q=-0.0 size=N/A time=00:11:45.87 bitrate=N/A speed=7.91x    frame=17014 fps=190 q=-0.0 size=N/A time=00:11:49.62 bitrate=N/A speed=7.91x    frame=17104 fps=190 q=-0.0 size=N/A time=00:11:53.37 bitrate=N/A speed= 7.9x    frame=17220 fps=190 q=-0.0 size=N/A time=00:11:58.21 bitrate=N/A speed=7.91x    frame=17309 fps=190 q=-0.0 size=N/A time=00:12:01.92 bitrate=N/A speed=7.91x    frame=17418 fps=190 q=-0.0 size=N/A time=00:12:06.47 bitrate=N/A speed=7.91x    frame=17517 fps=190 q=-0.0 size=N/A time=00:12:10.60 bitrate=N/A speed=7.91x    frame=17609 fps=190 q=-0.0 size=N/A time=00:12:14.44 bitrate=N/A speed=7.91x    frame=17716 fps=190 q=-0.0 size=N/A time=00:12:18.90 bitrate=N/A speed=7.92x    frame=17814 fps=190 q=-0.0 size=N/A time=00:12:22.99 bitrate=N/A speed=7.92x    frame=17914 fps=190 q=-0.0 size=N/A time=00:12:27.16 bitrate=N/A speed=7.92x    frame=18001 fps=190 q=-0.0 size=N/A time=00:12:30.79 bitrate=N/A speed=7.91x    frame=18115 fps=190 q=-0.0 size=N/A time=00:12:35.54 bitrate=N/A speed=7.92x    frame=18207 fps=190 q=-0.0 size=N/A time=00:12:39.38 bitrate=N/A speed=7.92x    frame=18313 fps=190 q=-0.0 size=N/A time=00:12:43.80 bitrate=N/A speed=7.92x    frame=18413 fps=190 q=-0.0 size=N/A time=00:12:47.97 bitrate=N/A speed=7.92x    frame=18509 fps=190 q=-0.0 size=N/A time=00:12:51.97 bitrate=N/A speed=7.92x    frame=18605 fps=190 q=-0.0 size=N/A time=00:12:55.98 bitrate=N/A speed=7.92x    frame=18707 fps=190 q=-0.0 size=N/A time=00:13:00.23 bitrate=N/A speed=7.92x    frame=18805 fps=190 q=-0.0 size=N/A time=00:13:04.32 bitrate=N/A speed=7.92x    frame=18899 fps=190 q=-0.0 size=N/A time=00:13:08.24 bitrate=N/A speed=7.92x    frame=19002 fps=190 q=-0.0 size=N/A time=00:13:12.54 bitrate=N/A speed=7.92x    frame=19103 fps=190 q=-0.0 size=N/A time=00:13:16.75 bitrate=N/A speed=7.92x    frame=19201 fps=190 q=-0.0 size=N/A time=00:13:20.84 bitrate=N/A speed=7.92x    frame=19300 fps=190 q=-0.0 size=N/A time=00:13:24.97 bitrate=N/A speed=7.92x    frame=19398 fps=190 q=-0.0 size=N/A time=00:13:29.05 bitrate=N/A speed=7.92x    frame=19497 fps=190 q=-0.0 size=N/A time=00:13:33.18 bitrate=N/A speed=7.92x    frame=19594 fps=190 q=-0.0 size=N/A time=00:13:37.23 bitrate=N/A speed=7.92x    frame=19694 fps=190 q=-0.0 size=N/A time=00:13:41.40 bitrate=N/A speed=7.92x    frame=19798 fps=190 q=-0.0 size=N/A time=00:13:45.74 bitrate=N/A speed=7.93x    frame=19893 fps=190 q=-0.0 size=N/A time=00:13:49.70 bitrate=N/A speed=7.93x    frame=19996 fps=190 q=-0.0 size=N/A time=00:13:53.99 bitrate=N/A speed=7.93x    frame=20087 fps=190 q=-0.0 size=N/A time=00:13:57.79 bitrate=N/A speed=7.93x    frame=20181 fps=190 q=-0.0 size=N/A time=00:14:01.71 bitrate=N/A speed=7.92x    frame=20273 fps=190 q=-0.0 size=N/A time=00:14:05.55 bitrate=N/A speed=7.92x    frame=20371 fps=190 q=-0.0 size=N/A time=00:14:09.64 bitrate=N/A speed=7.92x    frame=20464 fps=190 q=-0.0 size=N/A time=00:14:13.51 bitrate=N/A speed=7.92x    frame=20557 fps=190 q=-0.0 size=N/A time=00:14:17.39 bitrate=N/A speed=7.92x    frame=20655 fps=190 q=-0.0 size=N/A time=00:14:21.48 bitrate=N/A speed=7.92x    frame=20764 fps=190 q=-0.0 size=N/A time=00:14:26.03 bitrate=N/A speed=7.92x    frame=20849 fps=190 q=-0.0 size=N/A time=00:14:29.57 bitrate=N/A speed=7.92x    frame=20968 fps=190 q=-0.0 size=N/A time=00:14:34.54 bitrate=N/A speed=7.92x    frame=21067 fps=190 q=-0.0 size=N/A time=00:14:38.66 bitrate=N/A speed=7.92x    frame=21161 fps=190 q=-0.0 size=N/A time=00:14:42.59 bitrate=N/A speed=7.92x    frame=21269 fps=190 q=-0.0 size=N/A time=00:14:47.09 bitrate=N/A speed=7.93x    frame=21369 fps=190 q=-0.0 size=N/A time=00:14:51.26 bitrate=N/A speed=7.93x    frame=21469 fps=190 q=-0.0 size=N/A time=00:14:55.43 bitrate=N/A speed=7.93x    frame=21570 fps=190 q=-0.0 size=N/A time=00:14:59.64 bitrate=N/A speed=7.93x    frame=21672 fps=190 q=-0.0 size=N/A time=00:15:03.90 bitrate=N/A speed=7.93x    frame=21770 fps=190 q=-0.0 size=N/A time=00:15:07.99 bitrate=N/A speed=7.93x    frame=21866 fps=190 q=-0.0 size=N/A time=00:15:11.99 bitrate=N/A speed=7.93x    frame=21968 fps=190 q=-0.0 size=N/A time=00:15:16.24 bitrate=N/A speed=7.93x    frame=22071 fps=190 q=-0.0 size=N/A time=00:15:20.54 bitrate=N/A speed=7.93x    frame=22171 fps=190 q=-0.0 size=N/A time=00:15:24.71 bitrate=N/A speed=7.93x    frame=22270 fps=190 q=-0.0 size=N/A time=00:15:28.84 bitrate=N/A speed=7.93x    frame=22369 fps=190 q=-0.0 size=N/A time=00:15:32.97 bitrate=N/A speed=7.94x    frame=22469 fps=190 q=-0.0 size=N/A time=00:15:37.14 bitrate=N/A speed=7.94x    frame=22567 fps=190 q=-0.0 size=N/A time=00:15:41.23 bitrate=N/A speed=7.94x    frame=22664 fps=190 q=-0.0 size=N/A time=00:15:45.27 bitrate=N/A speed=7.94x    frame=22767 fps=190 q=-0.0 size=N/A time=00:15:49.57 bitrate=N/A speed=7.94x    frame=22860 fps=190 q=-0.0 size=N/A time=00:15:53.45 bitrate=N/A speed=7.93x    frame=22965 fps=190 q=-0.0 size=N/A time=00:15:57.83 bitrate=N/A speed=7.94x    frame=23066 fps=190 q=-0.0 size=N/A time=00:16:02.04 bitrate=N/A speed=7.94x    frame=23169 fps=190 q=-0.0 size=N/A time=00:16:06.34 bitrate=N/A speed=7.94x    frame=23262 fps=190 q=-0.0 size=N/A time=00:16:10.21 bitrate=N/A speed=7.94x    frame=23367 fps=190 q=-0.0 size=N/A time=00:16:14.59 bitrate=N/A speed=7.94x    frame=23458 fps=190 q=-0.0 size=N/A time=00:16:18.39 bitrate=N/A speed=7.94x    frame=23570 fps=190 q=-0.0 size=N/A time=00:16:23.06 bitrate=N/A speed=7.94x    frame=23669 fps=190 q=-0.0 size=N/A time=00:16:27.19 bitrate=N/A speed=7.94x    frame=23767 fps=190 q=-0.0 size=N/A time=00:16:31.28 bitrate=N/A speed=7.94x    frame=23866 fps=190 q=-0.0 size=N/A time=00:16:35.41 bitrate=N/A speed=7.94x    frame=23968 fps=190 q=-0.0 size=N/A time=00:16:39.66 bitrate=N/A speed=7.94x    frame=24064 fps=190 q=-0.0 size=N/A time=00:16:43.66 bitrate=N/A speed=7.94x    frame=24168 fps=191 q=-0.0 size=N/A time=00:16:48.00 bitrate=N/A speed=7.95x    frame=24271 fps=191 q=-0.0 size=N/A time=00:16:52.30 bitrate=N/A speed=7.95x    frame=24370 fps=191 q=-0.0 size=N/A time=00:16:56.43 bitrate=N/A speed=7.95x    frame=24470 fps=191 q=-0.0 size=N/A time=00:17:00.60 bitrate=N/A speed=7.95x    frame=24568 fps=191 q=-0.0 size=N/A time=00:17:04.69 bitrate=N/A speed=7.95x    frame=24668 fps=191 q=-0.0 size=N/A time=00:17:08.86 bitrate=N/A speed=7.95x    frame=24769 fps=191 q=-0.0 size=N/A time=00:17:13.07 bitrate=N/A speed=7.95x    frame=24860 fps=191 q=-0.0 size=N/A time=00:17:16.86 bitrate=N/A speed=7.95x    frame=24959 fps=191 q=-0.0 size=N/A time=00:17:20.99 bitrate=N/A speed=7.95x    frame=25063 fps=191 q=-0.0 size=N/A time=00:17:25.33 bitrate=N/A speed=7.95x    frame=25166 fps=191 q=-0.0 size=N/A time=00:17:29.63 bitrate=N/A speed=7.95x    frame=25261 fps=191 q=-0.0 size=N/A time=00:17:33.59 bitrate=N/A speed=7.95x    frame=25358 fps=191 q=-0.0 size=N/A time=00:17:37.63 bitrate=N/A speed=7.95x    frame=25454 fps=191 q=-0.0 size=N/A time=00:17:41.64 bitrate=N/A speed=7.95x    frame=25558 fps=191 q=-0.0 size=N/A time=00:17:45.98 bitrate=N/A speed=7.95x    frame=25650 fps=191 q=-0.0 size=N/A time=00:17:49.81 bitrate=N/A speed=7.95x    frame=25758 fps=191 q=-0.0 size=N/A time=00:17:54.32 bitrate=N/A speed=7.95x    frame=25857 fps=191 q=-0.0 size=N/A time=00:17:58.45 bitrate=N/A speed=7.95x    frame=25954 fps=191 q=-0.0 size=N/A time=00:18:02.49 bitrate=N/A speed=7.95x    frame=26051 fps=191 q=-0.0 size=N/A time=00:18:06.54 bitrate=N/A speed=7.95x    frame=26147 fps=191 q=-0.0 size=N/A time=00:18:10.54 bitrate=N/A speed=7.95x    frame=26240 fps=191 q=-0.0 size=N/A time=00:18:14.42 bitrate=N/A speed=7.95x    frame=26343 fps=191 q=-0.0 size=N/A time=00:18:18.72 bitrate=N/A speed=7.95x    frame=26441 fps=191 q=-0.0 size=N/A time=00:18:22.81 bitrate=N/A speed=7.95x    frame=26542 fps=191 q=-0.0 size=N/A time=00:18:27.02 bitrate=N/A speed=7.95x    frame=26641 fps=191 q=-0.0 size=N/A time=00:18:31.15 bitrate=N/A speed=7.95x    frame=26735 fps=191 q=-0.0 size=N/A time=00:18:35.07 bitrate=N/A speed=7.95x    frame=26834 fps=191 q=-0.0 size=N/A time=00:18:39.20 bitrate=N/A speed=7.95x    frame=26943 fps=191 q=-0.0 size=N/A time=00:18:43.74 bitrate=N/A speed=7.95x    frame=27039 fps=191 q=-0.0 size=N/A time=00:18:47.75 bitrate=N/A speed=7.95x    frame=27137 fps=191 q=-0.0 size=N/A time=00:18:51.83 bitrate=N/A speed=7.95x    frame=27240 fps=191 q=-0.0 size=N/A time=00:18:56.13 bitrate=N/A speed=7.95x    frame=27338 fps=191 q=-0.0 size=N/A time=00:19:00.22 bitrate=N/A speed=7.95x    frame=27435 fps=191 q=-0.0 size=N/A time=00:19:04.26 bitrate=N/A speed=7.95x    frame=27534 fps=191 q=-0.0 size=N/A time=00:19:08.39 bitrate=N/A speed=7.95x    frame=27635 fps=191 q=-0.0 size=N/A time=00:19:12.60 bitrate=N/A speed=7.95x    frame=27728 fps=191 q=-0.0 size=N/A time=00:19:16.48 bitrate=N/A speed=7.95x    frame=27836 fps=191 q=-0.0 size=N/A time=00:19:20.99 bitrate=N/A speed=7.96x    frame=27935 fps=191 q=-0.0 size=N/A time=00:19:25.12 bitrate=N/A speed=7.96x    frame=28031 fps=191 q=-0.0 size=N/A time=00:19:29.12 bitrate=N/A speed=7.95x    frame=28134 fps=191 q=-0.0 size=N/A time=00:19:33.42 bitrate=N/A speed=7.96x    frame=28229 fps=191 q=-0.0 size=N/A time=00:19:37.38 bitrate=N/A speed=7.96x    frame=28322 fps=191 q=-0.0 size=N/A time=00:19:41.26 bitrate=N/A speed=7.95x    frame=28435 fps=191 q=-0.0 size=N/A time=00:19:45.97 bitrate=N/A speed=7.96x    frame=28529 fps=191 q=-0.0 size=N/A time=00:19:49.89 bitrate=N/A speed=7.96x    frame=28632 fps=191 q=-0.0 size=N/A time=00:19:54.19 bitrate=N/A speed=7.96x    frame=28734 fps=191 q=-0.0 size=N/A time=00:19:58.44 bitrate=N/A speed=7.96x    frame=28833 fps=191 q=-0.0 size=N/A time=00:20:02.57 bitrate=N/A speed=7.96x    frame=28933 fps=191 q=-0.0 size=N/A time=00:20:06.74 bitrate=N/A speed=7.96x    frame=29033 fps=191 q=-0.0 size=N/A time=00:20:10.91 bitrate=N/A speed=7.96x    frame=29123 fps=191 q=-0.0 size=N/A time=00:20:14.67 bitrate=N/A speed=7.96x    frame=29235 fps=191 q=-0.0 size=N/A time=00:20:19.34 bitrate=N/A speed=7.96x    frame=29334 fps=191 q=-0.0 size=N/A time=00:20:23.47 bitrate=N/A speed=7.96x    frame=29434 fps=191 q=-0.0 size=N/A time=00:20:27.64 bitrate=N/A speed=7.96x    frame=29535 fps=191 q=-0.0 size=N/A time=00:20:31.85 bitrate=N/A speed=7.96x    frame=29627 fps=191 q=-0.0 size=N/A time=00:20:35.69 bitrate=N/A speed=7.96x    frame=29729 fps=191 q=-0.0 size=N/A time=00:20:39.94 bitrate=N/A speed=7.96x    frame=29819 fps=191 q=-0.0 size=N/A time=00:20:43.70 bitrate=N/A speed=7.96x    frame=29923 fps=191 q=-0.0 size=N/A time=00:20:48.03 bitrate=N/A speed=7.96x    frame=30023 fps=191 q=-0.0 size=N/A time=00:20:52.20 bitrate=N/A speed=7.96x    frame=30117 fps=191 q=-0.0 size=N/A time=00:20:56.12 bitrate=N/A speed=7.96x    frame=30221 fps=191 q=-0.0 size=N/A time=00:21:00.46 bitrate=N/A speed=7.96x    frame=30324 fps=191 q=-0.0 size=N/A time=00:21:04.76 bitrate=N/A speed=7.96x    frame=30420 fps=191 q=-0.0 size=N/A time=00:21:08.76 bitrate=N/A speed=7.96x    frame=30508 fps=191 q=-0.0 size=N/A time=00:21:12.43 bitrate=N/A speed=7.96x    frame=30625 fps=191 q=-0.0 size=N/A time=00:21:17.31 bitrate=N/A speed=7.96x    frame=30725 fps=191 q=-0.0 size=N/A time=00:21:21.48 bitrate=N/A speed=7.96x    frame=30823 fps=191 q=-0.0 size=N/A time=00:21:25.57 bitrate=N/A speed=7.96x    frame=30920 fps=191 q=-0.0 size=N/A time=00:21:29.62 bitrate=N/A speed=7.96x    frame=31018 fps=191 q=-0.0 size=N/A time=00:21:33.70 bitrate=N/A speed=7.96x    frame=31106 fps=191 q=-0.0 size=N/A time=00:21:37.37 bitrate=N/A speed=7.96x    frame=31204 fps=191 q=-0.0 size=N/A time=00:21:41.46 bitrate=N/A speed=7.96x    frame=31296 fps=191 q=-0.0 size=N/A time=00:21:45.30 bitrate=N/A speed=7.96x    frame=31383 fps=191 q=-0.0 size=N/A time=00:21:48.93 bitrate=N/A speed=7.96x    frame=31484 fps=191 q=-0.0 size=N/A time=00:21:53.14 bitrate=N/A speed=7.96x    frame=31570 fps=191 q=-0.0 size=N/A time=00:21:56.73 bitrate=N/A speed=7.95x    frame=31666 fps=191 q=-0.0 size=N/A time=00:22:00.73 bitrate=N/A speed=7.95x    frame=31768 fps=191 q=-0.0 size=N/A time=00:22:04.99 bitrate=N/A speed=7.95x    frame=31862 fps=191 q=-0.0 size=N/A time=00:22:08.91 bitrate=N/A speed=7.95x    frame=31950 fps=191 q=-0.0 size=N/A time=00:22:12.58 bitrate=N/A speed=7.95x    frame=32050 fps=191 q=-0.0 size=N/A time=00:22:16.75 bitrate=N/A speed=7.95x    frame=32150 fps=191 q=-0.0 size=N/A time=00:22:20.92 bitrate=N/A speed=7.95x    frame=32242 fps=191 q=-0.0 size=N/A time=00:22:24.76 bitrate=N/A speed=7.95x    frame=32337 fps=191 q=-0.0 size=N/A time=00:22:28.72 bitrate=N/A speed=7.95x    frame=32432 fps=191 q=-0.0 size=N/A time=00:22:32.68 bitrate=N/A speed=7.95x    frame=32520 fps=191 q=-0.0 size=N/A time=00:22:36.35 bitrate=N/A speed=7.95x    frame=32625 fps=191 q=-0.0 size=N/A time=00:22:40.73 bitrate=N/A speed=7.95x    frame=32721 fps=191 q=-0.0 size=N/A time=00:22:44.73 bitrate=N/A speed=7.95x    frame=32818 fps=191 q=-0.0 size=N/A time=00:22:48.78 bitrate=N/A speed=7.95x    frame=32908 fps=190 q=-0.0 size=N/A time=00:22:52.53 bitrate=N/A speed=7.95x    frame=33010 fps=191 q=-0.0 size=N/A time=00:22:56.79 bitrate=N/A speed=7.95x    frame=33104 fps=190 q=-0.0 size=N/A time=00:23:00.71 bitrate=N/A speed=7.95x    frame=33205 fps=191 q=-0.0 size=N/A time=00:23:04.92 bitrate=N/A speed=7.95x    frame=33304 fps=191 q=-0.0 size=N/A time=00:23:09.05 bitrate=N/A speed=7.95x    frame=33402 fps=191 q=-0.0 size=N/A time=00:23:13.14 bitrate=N/A speed=7.95x    frame=33499 fps=190 q=-0.0 size=N/A time=00:23:17.18 bitrate=N/A speed=7.95x    frame=33602 fps=191 q=-0.0 size=N/A time=00:23:21.48 bitrate=N/A speed=7.95x    frame=33702 fps=191 q=-0.0 size=N/A time=00:23:25.65 bitrate=N/A speed=7.95x    frame=33799 fps=191 q=-0.0 size=N/A time=00:23:29.69 bitrate=N/A speed=7.95x    frame=33902 fps=191 q=-0.0 size=N/A time=00:23:33.99 bitrate=N/A speed=7.95x    frame=33992 fps=191 q=-0.0 size=N/A time=00:23:37.74 bitrate=N/A speed=7.95x    [Parsed_ssim_10 @ 0000023c55150580] SSIM Y:0.991430 (20.670038) U:0.992436 (21.212277) V:0.992760 (21.402597) All:0.991819 (20.871971)
[out#0/null @ 0000023c5341d240] video:14645KiB audio:266552KiB subtitle:0KiB other streams:0KiB global headers:0KiB muxing overhead: unknown
frame=34083 fps=191 q=-0.0 Lsize=N/A time=00:23:41.54 bitrate=N/A speed=7.95x    
